<?xml version="1.0" encoding="iso-8859-1"?>
<!-- Generator: Adobe Illustrator 19.0.0, SVG Export Plug-In . SVG Version: 6.00 Build 0)  -->
<svg height="15" width="15" version="1.1" id="Layer_1" xmlns="http://www.w3.org/2000/svg" xmlns:xlink="http://www.w3.org/1999/xlink" x="0px" y="0px"
	 viewBox="0 0 512 512" style="enable-background:new 0 0 512 512;" xml:space="preserve">
<g>
	<g>
		<g>
			<path d="M490.667,0H21.333C9.551,0,0,9.551,0,21.333v469.333C0,502.449,9.551,512,21.333,512h469.333
				c11.782,0,21.333-9.551,21.333-21.333V21.333C512,9.551,502.449,0,490.667,0z M469.333,469.333H42.667V42.667h426.667V469.333z"
				/>
			<path d="M405.333,213.333c-11.782,0-21.333,9.551-21.333,21.333V256c0,11.782,9.551,21.333,21.333,21.333
				c11.782,0,21.333-9.551,21.333-21.333v-21.333C426.667,222.885,417.115,213.333,405.333,213.333z"/>
			<path d="M362.667,128H384v21.333c0,11.782,9.551,21.333,21.333,21.333c11.782,0,21.333-9.551,21.333-21.333v-42.667
				c0-11.782-9.551-21.333-21.333-21.333h-42.667c-11.782,0-21.333,9.551-21.333,21.333C341.333,118.449,350.885,128,362.667,128z"
				/>
			<path d="M106.667,170.671c11.782,0,21.333-9.551,21.333-21.333v-21.333h21.333c11.782,0,21.333-9.551,21.333-21.333
				c0-11.782-9.551-21.333-21.333-21.333h-42.667c-11.782,0-21.333,9.551-21.333,21.333v42.667
				C85.333,161.12,94.885,170.671,106.667,170.671z"/>
			<path d="M106.667,277.333c11.782,0,21.333-9.551,21.333-21.333v-21.333c0-11.782-9.551-21.333-21.333-21.333
				c-11.782,0-21.333,9.551-21.333,21.333V256C85.333,267.782,94.885,277.333,106.667,277.333z"/>
			<path d="M234.667,128h42.667c11.782,0,21.333-9.551,21.333-21.333c0-11.782-9.551-21.333-21.333-21.333h-42.667
				c-11.782,0-21.333,9.551-21.333,21.333C213.333,118.449,222.885,128,234.667,128z"/>
			<path d="M128,426.667c23.573,0,42.667-19.093,42.667-42.667c0-23.573-19.093-42.667-42.667-42.667
				c-23.573,0-42.667,19.093-42.667,42.667C85.333,407.573,104.427,426.667,128,426.667z"/>
			<path d="M217.851,371.278c-7.25,9.287-5.599,22.693,3.689,29.944s22.693,5.599,29.944-3.689
				c13.352-17.104,36.301-17.349,52.538,1.007c0.945,1.068,1.949,2.01,2.999,2.831c33.789,34.758,85.973,33.107,115.13-4.243
				c7.25-9.287,5.599-22.693-3.689-29.944c-9.287-7.25-22.693-5.599-29.943,3.689c-13.357,17.11-36.317,17.359-52.527-0.995
				c-0.953-1.079-1.966-2.029-3.026-2.856C299.152,332.294,247.001,333.937,217.851,371.278z"/>
		</g>
	</g>
</g>
<g>
</g>
<g>
</g>
<g>
</g>
<g>
</g>
<g>
</g>
<g>
</g>
<g>
</g>
<g>
</g>
<g>
</g>
<g>
</g>
<g>
</g>
<g>
</g>
<g>
</g>
<g>
</g>
<g>
</g>
</svg>
